<?xml version="1.0" standalone="no"?>
<!DOCTYPE svg PUBLIC "-//W3C//DTD SVG 20010904//EN"
 "http://www.w3.org/TR/2001/REC-SVG-20010904/DTD/svg10.dtd">
<svg version="1.0" xmlns="http://www.w3.org/2000/svg"
 width="649.000000pt" height="649.000000pt" viewBox="0 0 649.000000 649.000000"
 preserveAspectRatio="xMidYMid meet">
<metadata>
Created by potrace 1.14, written by Peter Selinger 2001-2017
</metadata>
<g transform="translate(0.000000,649.000000) scale(0.100000,-0.100000)"
fill="#000000" stroke="none">
<path d="M3175 6195 c-33 -19 -69 -39 -80 -45 -37 -20 -70 -39 -85 -50 -24
-17 -63 -39 -92 -51 -16 -6 -28 -15 -28 -21 0 -5 -4 -6 -10 -3 -5 3 -10 1 -10
-4 0 -6 -6 -11 -14 -11 -8 0 -21 -6 -28 -13 -7 -7 -28 -19 -45 -26 -18 -7 -33
-17 -33 -20 0 -4 -16 -13 -35 -21 -19 -8 -35 -17 -35 -22 0 -4 -4 -8 -9 -8 -6
0 -60 -29 -121 -65 -61 -36 -130 -76 -153 -89 -23 -13 -62 -35 -87 -50 -25
-15 -53 -29 -62 -33 -10 -3 -18 -9 -18 -13 0 -4 -11 -11 -25 -14 -14 -4 -25
-11 -25 -17 0 -6 -4 -7 -10 -4 -5 3 -10 1 -10 -4 0 -6 -4 -11 -9 -11 -9 0 -53
-25 -166 -93 -16 -9 -38 -20 -47 -23 -10 -4 -18 -11 -18 -16 0 -5 -4 -6 -10
-3 -5 3 -10 2 -10 -3 0 -5 -8 -12 -17 -15 -18 -6 -94 -48 -103 -57 -3 -3 -18
-12 -35 -20 -16 -8 -32 -17 -35 -20 -3 -3 -16 -11 -30 -18 -57 -30 -85 -45
-90 -52 -3 -3 -21 -14 -40 -23 -19 -10 -44 -23 -55 -30 -10 -6 -46 -28 -80
-47 -33 -19 -69 -41 -80 -48 -11 -7 -28 -15 -37 -18 -10 -4 -18 -11 -18 -17 0
-6 -3 -7 -6 -4 -4 4 -19 -2 -33 -12 -14 -10 -47 -30 -72 -43 -78 -43 -93 -53
-107 -65 -7 -7 -20 -13 -28 -13 -8 0 -14 -5 -14 -12 0 -6 -3 -8 -6 -5 -4 3
-18 -3 -32 -13 -13 -11 -31 -20 -38 -20 -8 0 -14 -4 -14 -9 0 -5 -12 -14 -27
-20 -16 -6 -50 -24 -78 -40 l-50 -29 -1 -1429 -1 -1429 21 -10 c11 -6 65 -36
118 -67 54 -31 102 -57 108 -57 5 0 10 -4 10 -9 0 -5 15 -14 33 -22 17 -7 34
-16 37 -19 4 -5 265 -157 391 -228 19 -10 79 -45 134 -77 55 -32 316 -183 580
-335 264 -153 512 -296 551 -319 39 -22 76 -41 82 -41 6 0 12 -4 14 -8 4 -10
162 -102 176 -102 5 0 12 -4 14 -8 5 -13 184 -112 202 -112 10 0 33 12 52 26
19 15 34 23 34 20 0 -6 48 21 60 34 6 6 85 49 117 65 13 5 23 13 23 18 0 4 6
7 13 7 6 0 35 15 62 32 69 44 105 65 138 78 15 7 27 16 27 22 0 5 5 6 10 3 6
-3 10 -3 10 2 0 4 10 13 23 19 43 21 142 77 177 101 19 12 40 23 47 23 7 0 13
5 13 10 0 6 6 10 14 10 8 0 22 7 30 16 9 8 16 13 16 9 0 -5 50 24 60 35 3 3
21 14 40 24 51 25 94 50 100 57 6 7 53 32 90 49 13 6 27 15 30 19 3 3 31 20
62 36 32 17 58 34 58 38 0 5 5 5 10 2 6 -3 10 -2 10 3 0 5 8 12 18 15 9 4 35
18 57 32 22 14 52 30 68 36 15 6 27 15 27 21 0 5 5 6 10 3 6 -3 10 -1 10 4 0
6 6 11 14 11 8 0 22 7 30 16 9 8 16 13 16 9 0 -3 12 2 28 13 29 21 88 56 137
81 17 8 36 21 43 28 7 7 20 13 28 13 8 0 14 5 14 11 0 5 5 7 10 4 6 -3 10 -1
10 4 0 6 6 11 14 11 8 0 21 6 28 13 7 7 28 19 46 26 17 7 32 16 32 20 0 3 15
12 33 20 17 8 34 17 37 20 6 7 39 26 90 53 19 10 49 27 65 37 17 10 47 28 68
40 20 11 54 31 75 43 20 11 46 26 57 32 11 6 32 19 46 29 l27 18 0 1424 0
1424 -122 70 c-66 38 -177 102 -246 141 -167 97 -395 229 -675 390 -126 73
-234 136 -240 140 -5 4 -35 21 -65 37 -30 17 -111 63 -180 103 -69 40 -140 81
-157 91 -18 11 -48 27 -65 38 -18 10 -94 53 -168 97 -74 43 -153 87 -175 98
-22 12 -42 24 -45 27 -7 8 -325 189 -330 188 -3 0 -32 -16 -65 -34z"/>
</g>
</svg>
